<svg width="40" height="40" viewBox="0 0 40 40" fill="none" xmlns="http://www.w3.org/2000/svg">
<path d="M24.8046 16.2755C25.4011 16.2755 25.8846 15.7919 25.8846 15.1955C25.8846 14.599 25.4011 14.1155 24.8046 14.1155C24.2081 14.1155 23.7246 14.599 23.7246 15.1955C23.7246 15.7919 24.2081 16.2755 24.8046 16.2755Z" fill="white"/>
<path d="M19.9999 15.3785C19.0859 15.3785 18.1924 15.6495 17.4324 16.1573C16.6724 16.6652 16.08 17.3869 15.7302 18.2314C15.3804 19.0759 15.2889 20.0051 15.4672 20.9016C15.6455 21.7981 16.0857 22.6215 16.732 23.2679C17.3784 23.9142 18.2018 24.3544 19.0983 24.5327C19.9948 24.711 20.924 24.6195 21.7685 24.2697C22.613 23.9199 23.3347 23.3275 23.8426 22.5675C24.3504 21.8075 24.6214 20.914 24.6214 20C24.6214 18.7743 24.1345 17.5988 23.2678 16.7321C22.4011 15.8654 21.2256 15.3785 19.9999 15.3785ZM19.9999 23C19.4066 23 18.8266 22.824 18.3332 22.4944C17.8399 22.1647 17.4553 21.6962 17.2283 21.148C17.0012 20.5999 16.9418 19.9967 17.0576 19.4147C17.1733 18.8328 17.459 18.2982 17.8786 17.8787C18.2982 17.4591 18.8327 17.1734 19.4146 17.0576C19.9966 16.9419 20.5998 17.0013 21.148 17.2283C21.6961 17.4554 22.1647 17.8399 22.4943 18.3333C22.824 18.8266 22.9999 19.4066 22.9999 20C22.9999 20.7956 22.6838 21.5587 22.1212 22.1213C21.5586 22.6839 20.7956 23 19.9999 23Z" fill="white"/>
<path d="M20 12.6215C22.403 12.6215 22.688 12.6305 23.6368 12.674C24.2074 12.6808 24.7726 12.7855 25.3077 12.9837C25.696 13.1335 26.0486 13.3629 26.3428 13.6572C26.6371 13.9514 26.8665 14.304 27.0163 14.6923C27.2145 15.2274 27.3192 15.7926 27.326 16.3632C27.3695 17.312 27.3785 17.597 27.3785 20.0007C27.3785 22.4045 27.3695 22.688 27.326 23.6368C27.3192 24.2074 27.2145 24.7726 27.0163 25.3077C26.8665 25.696 26.6371 26.0486 26.3428 26.3428C26.0486 26.6371 25.696 26.8665 25.3077 27.0163C24.7726 27.2145 24.2074 27.3192 23.6368 27.326C22.688 27.3695 22.403 27.3785 20 27.3785C17.597 27.3785 17.312 27.3695 16.3632 27.326C15.7926 27.3192 15.2274 27.2145 14.6923 27.0163C14.304 26.8665 13.9514 26.6371 13.6572 26.3428C13.3629 26.0486 13.1335 25.696 12.9837 25.3077C12.7855 24.7726 12.6808 24.2074 12.674 23.6368C12.6305 22.688 12.6215 22.403 12.6215 20C12.6215 17.597 12.6305 17.312 12.674 16.3632C12.6808 15.7926 12.7855 15.2274 12.9837 14.6923C13.1335 14.304 13.3629 13.9514 13.6572 13.6572C13.9514 13.3629 14.304 13.1335 14.6923 12.9837C15.2274 12.7855 15.7926 12.6808 16.3632 12.674C17.312 12.6305 17.597 12.6215 20 12.6215ZM20 11C17.5557 11 17.249 11.0105 16.289 11.054C15.5426 11.0691 14.8041 11.2106 14.105 11.4725C13.507 11.7037 12.964 12.0573 12.5107 12.5107C12.0573 12.964 11.7037 13.507 11.4725 14.105C11.2105 14.8044 11.069 15.5431 11.054 16.2898C11.0105 17.2498 11 17.555 11 20C11 22.445 11.0105 22.751 11.054 23.711C11.0691 24.4574 11.2106 25.1959 11.4725 25.895C11.7037 26.493 12.0573 27.036 12.5107 27.4893C12.964 27.9427 13.507 28.2963 14.105 28.5275C14.8044 28.7895 15.5431 28.931 16.2898 28.946C17.2498 28.9895 17.5557 29 20 29C22.4443 29 22.751 28.9895 23.711 28.946C24.4577 28.931 25.1964 28.7895 25.8958 28.5275C26.4937 28.2963 27.0368 27.9427 27.4901 27.4893C27.9434 27.036 28.297 26.493 28.5282 25.895C28.79 25.1956 28.9313 24.4569 28.946 23.7103C28.9895 22.7503 29 22.445 29 20C29 17.555 28.9895 17.249 28.946 16.289C28.9309 15.5426 28.7894 14.8041 28.5275 14.105C28.2963 13.507 27.9427 12.964 27.4893 12.5107C27.036 12.0573 26.493 11.7037 25.895 11.4725C25.1956 11.2107 24.4569 11.0695 23.7103 11.0547C22.7503 11.0097 22.445 11 20 11Z" fill="white"/>
<rect x="0.5" y="0.5" width="39" height="39" rx="19.5" stroke="#CAC0F3"/>
</svg>
